<svg xmlns="http://www.w3.org/2000/svg" viewBox="0 0 64 64" role="img" aria-label="OpenSpec Dashboard favicon">
  <defs>
    <linearGradient id="bg" x1="0%" y1="0%" x2="100%" y2="100%">
      <stop offset="0%" stop-color="#0f4c81"/>
      <stop offset="100%" stop-color="#1f9d8b"/>
    </linearGradient>
  </defs>
  <rect x="4" y="4" width="56" height="56" rx="14" fill="url(#bg)"/>
  <path d="M22 18h16l8 8v20a4 4 0 0 1-4 4H22a4 4 0 0 1-4-4V22a4 4 0 0 1 4-4z" fill="#fff" opacity=".95"/>
  <path d="M38 18v8h8" fill="none" stroke="#0f4c81" stroke-width="2.5" stroke-linecap="round" stroke-linejoin="round"/>
  <path d="M25 32h14M25 38h14M25 44h10" fill="none" stroke="#0f4c81" stroke-width="2.5" stroke-linecap="round"/>
  <circle cx="45" cy="43" r="7" fill="#ffb703" stroke="#0f4c81" stroke-width="2"/>
  <path d="M42 43.5l2 2 4-4" fill="none" stroke="#0f4c81" stroke-width="2.2" stroke-linecap="round" stroke-linejoin="round"/>
</svg>
